<?xml version="1.0" encoding="UTF-8"?>
<svg width="10px" height="12px" viewBox="0 0 10 12" version="1.1" xmlns="http://www.w3.org/2000/svg" xmlns:xlink="http://www.w3.org/1999/xlink">
    <!-- Generator: Sketch 50.2 (55047) - http://www.bohemiancoding.com/sketch -->
    <title>man-user</title>
    <desc>Created with Sketch.</desc>
    <defs></defs>
    <g id="FoodCar-Copy" stroke="none" stroke-width="1" fill="none" fill-rule="evenodd">
        <g id="ios-index-Foodcar" transform="translate(-51.000000, -541.000000)" fill-rule="nonzero">
            <g id="Group-12" transform="translate(0.000000, 397.000000)">
                <g id="Group-14-Copy-2" transform="translate(51.000000, 141.000000)">
                    <g id="man-user" transform="translate(0.000000, 3.000000)">
                        <path d="M4.59428571,5.86878857 C5.92848,5.86878857 7.01016,4.55502857 7.01016,2.93441143 C7.01016,1.31376 6.65502857,0 4.59428571,0 C2.53354286,0 2.17834286,1.31376 2.17834286,2.93441143 C2.17834286,4.55502857 3.26002286,5.86878857 4.59428571,5.86878857 Z" id="Shape" fill="#B7B7B7"></path>
                        <path d="M0.0376188407,10.7984653 C0.0316188407,9.82553697 0.0256188407,10.5243439 0.0376188407,10.7984653 Z" id="Shape" fill="#000000"></path>
                        <path d="M9.1572,10.8366662 C9.1762,10.6859731 9.1637,9.79117313 9.1572,10.8366662 Z" id="Shape" fill="#000000"></path>
                        <path d="M9.15205714,10.2307543 C9.10731429,7.4076 8.73860571,6.60315429 5.91713143,6.09394286 C5.91713143,6.09394286 5.51996571,6.60003429 4.59425143,6.60003429 C3.66853714,6.60003429 3.27130286,6.09394286 3.27130286,6.09394286 C0.480617143,6.5976 0.0894857143,7.39011429 0.0380571429,10.13904 C0.03384,10.3635086 0.0318857143,10.3753029 0.0311314286,10.3492457 C0.0313028571,10.3980686 0.0315085714,10.4883771 0.0315085714,10.6458514 C0.0315085714,10.6458514 0.703234286,12 4.59425143,12 C8.4852,12 9.15699429,10.6458514 9.15699429,10.6458514 C9.15699429,10.5446743 9.15706286,10.47432 9.15716571,10.4264571 C9.15641143,10.4425714 9.15490286,10.4113371 9.15205714,10.2307543 Z" id="Shape" fill="#B7B7B7"></path>
                    </g>
                </g>
            </g>
        </g>
    </g>
</svg>