<?xml version="1.0" encoding="UTF-8"?>
<svg width="16px" height="19px" viewBox="0 0 16 19" version="1.1" xmlns="http://www.w3.org/2000/svg" xmlns:xlink="http://www.w3.org/1999/xlink">
    <title>file-text</title>
    <defs>
        <path d="M8.96,0 C9.17603089,0 9.38321371,0.0858179354 9.53597061,0.23857484 L14.4232433,5.12584757 C14.5760002,5.27860447 14.6618182,5.4857873 14.6618182,5.70181818 L14.6618182,15.4763636 C14.6618182,16.8259467 13.5677649,17.92 12.2181818,17.92 L2.44363636,17.92 C1.09405327,17.92 0,16.8259467 0,15.4763636 L0,2.44363636 C0,1.09405327 1.09405327,0 2.44363636,0 L8.96,0 Z M8.62260423,1.62909091 L2.44363636,1.62909091 C1.99377533,1.62909091 1.62909091,1.99377533 1.62909091,2.44363636 L1.62909091,15.4763636 C1.62909091,15.9262247 1.99377533,16.2909091 2.44363636,16.2909091 L12.2181818,16.2909091 C12.6680429,16.2909091 13.0327273,15.9262247 13.0327273,15.4763636 L13.0327273,6.03921396 L8.62260423,1.62909091 Z M10.5890909,12.2181818 C11.0389519,12.2181818 11.4036364,12.5828662 11.4036364,13.0327273 C11.4036364,13.4825883 11.0389519,13.8472727 10.5890909,13.8472727 L10.5890909,13.8472727 L4.07272727,13.8472727 C3.62286624,13.8472727 3.25818182,13.4825883 3.25818182,13.0327273 C3.25818182,12.5828662 3.62286624,12.2181818 4.07272727,12.2181818 L4.07272727,12.2181818 Z M10.5890909,8.96 C11.0389519,8.96 11.4036364,9.32468442 11.4036364,9.77454545 C11.4036364,10.2244065 11.0389519,10.5890909 10.5890909,10.5890909 L10.5890909,10.5890909 L4.07272727,10.5890909 C3.62286624,10.5890909 3.25818182,10.2244065 3.25818182,9.77454545 C3.25818182,9.32468442 3.62286624,8.96 4.07272727,8.96 L4.07272727,8.96 Z M5.70181818,5.70181818 C6.15167921,5.70181818 6.51636364,6.0665026 6.51636364,6.51636364 C6.51636364,6.96622467 6.15167921,7.33090909 5.70181818,7.33090909 L5.70181818,7.33090909 L4.07272727,7.33090909 C3.62286624,7.33090909 3.25818182,6.96622467 3.25818182,6.51636364 C3.25818182,6.0665026 3.62286624,5.70181818 4.07272727,5.70181818 L4.07272727,5.70181818 Z" id="path-1"></path>
    </defs>
    <g id="Symbols" stroke="none" stroke-width="1" fill="none" fill-rule="evenodd">
        <g id="Page/Homepage" transform="translate(-253.000000, -23.000000)">
            <g id="Group" transform="translate(0.000000, -23.000000)">
                <g id="file-text" transform="translate(253.120000, 46.893333)">
                    <mask id="mask-2" fill="white">
                        <use xlink:href="#path-1"></use>
                    </mask>
                    <use id="Combined-Shape" fill="#303030" fill-rule="nonzero" xlink:href="#path-1"></use>
                    <path d="M9.77454545,0.814545455 C9.77454545,0.364684422 9.40986103,0 8.96,0 C8.51013897,0 8.14545455,0.364684422 8.14545455,0.814545455 L8.14545455,5.70181818 C8.14545455,6.15167921 8.51013897,6.51636364 8.96,6.51636364 L13.8472727,6.51636364 C14.2971338,6.51636364 14.6618182,6.15167921 14.6618182,5.70181818 C14.6618182,5.25195715 14.2971338,4.88727273 13.8472727,4.88727273 L9.77454545,4.88727273 L9.77454545,0.814545455 Z" id="Path" fill="#303030"></path>
                </g>
            </g>
        </g>
    </g>
</svg>