<?xml version="1.0" encoding="UTF-8"?>
<svg width="20px" height="24px" viewBox="0 0 20 24" version="1.1" xmlns="http://www.w3.org/2000/svg" xmlns:xlink="http://www.w3.org/1999/xlink">
    <!-- Generator: Sketch 50.2 (55047) - http://www.bohemiancoding.com/sketch -->
    <title>file-text</title>
    <desc>Created with Sketch.</desc>
    <defs>
        <path d="M12,0 C12.2893271,0 12.5668041,0.114934735 12.7713892,0.319519875 L19.3168438,6.86497442 C19.5214289,7.06955956 19.6363636,7.34703656 19.6363636,7.63636364 L19.6363636,20.7272727 C19.6363636,22.5347501 18.1711137,24 16.3636364,24 L3.27272727,24 C1.46524991,24 0,22.5347501 0,20.7272727 L0,3.27272727 C0,1.46524991 1.46524991,0 3.27272727,0 L12,0 Z M11.5481307,2.18181818 L3.27272727,2.18181818 C2.67023482,2.18181818 2.18181818,2.67023482 2.18181818,3.27272727 L2.18181818,20.7272727 C2.18181818,21.3297652 2.67023482,21.8181818 3.27272727,21.8181818 L16.3636364,21.8181818 C16.9661288,21.8181818 17.4545455,21.3297652 17.4545455,20.7272727 L17.4545455,8.08823298 L11.5481307,2.18181818 Z M14.1818182,12 C14.7843106,12 15.2727273,12.4884166 15.2727273,13.0909091 C15.2727273,13.6934015 14.7843106,14.1818182 14.1818182,14.1818182 L5.45454545,14.1818182 C4.852053,14.1818182 4.36363636,13.6934015 4.36363636,13.0909091 C4.36363636,12.4884166 4.852053,12 5.45454545,12 L14.1818182,12 Z M14.1818182,16.3636364 C14.7843106,16.3636364 15.2727273,16.852053 15.2727273,17.4545455 C15.2727273,18.0570379 14.7843106,18.5454545 14.1818182,18.5454545 L5.45454545,18.5454545 C4.852053,18.5454545 4.36363636,18.0570379 4.36363636,17.4545455 C4.36363636,16.852053 4.852053,16.3636364 5.45454545,16.3636364 L14.1818182,16.3636364 Z M7.63636364,7.63636364 C8.23885609,7.63636364 8.72727273,8.12478027 8.72727273,8.72727273 C8.72727273,9.32976518 8.23885609,9.81818182 7.63636364,9.81818182 L5.45454545,9.81818182 C4.852053,9.81818182 4.36363636,9.32976518 4.36363636,8.72727273 C4.36363636,8.12478027 4.852053,7.63636364 5.45454545,7.63636364 L7.63636364,7.63636364 Z" id="path-1"></path>
    </defs>
    <g id="FoodCar-Copy" stroke="none" stroke-width="1" fill="none" fill-rule="evenodd">
        <g id="ios-index-Foodcar" transform="translate(-339.000000, -31.000000)">
            <g id="file-text" transform="translate(339.000000, 31.000000)">
                <mask id="mask-2" fill="white">
                    <use xlink:href="#path-1"></use>
                </mask>
                <use id="Combined-Shape" fill="#FFFFFF" fill-rule="nonzero" xlink:href="#path-1"></use>
                <path d="M13.0909091,1.09090909 C13.0909091,0.488416637 12.6024925,0 12,0 C11.3975075,0 10.9090909,0.488416637 10.9090909,1.09090909 L10.9090909,7.63636364 C10.9090909,8.23885609 11.3975075,8.72727273 12,8.72727273 L18.5454545,8.72727273 C19.147947,8.72727273 19.6363636,8.23885609 19.6363636,7.63636364 C19.6363636,7.03387118 19.147947,6.54545455 18.5454545,6.54545455 L13.0909091,6.54545455 L13.0909091,1.09090909 Z" id="Path" fill="#FFFFFF"></path>
            </g>
        </g>
    </g>
</svg>